<?xml version="1.0" standalone="no"?><!DOCTYPE svg PUBLIC "-//W3C//DTD SVG 1.1//EN" "http://www.w3.org/Graphics/SVG/1.1/DTD/svg11.dtd"><svg t="1598349851848" class="icon" viewBox="0 0 1024 1024" version="1.1" xmlns="http://www.w3.org/2000/svg" p-id="4191" xmlns:xlink="http://www.w3.org/1999/xlink" width="200" height="200"><defs><style type="text/css"></style></defs><path d="M514.141091 63.069091s16.756364 9.681455 73.914182-31.232c0 0 84.712727-58.973091 162.257454-13.218909 0 0 33.419636 13.218909 20.200728 74.519273 0 0-50.641455 152.762182-126.743273 173.288727H367.336727s-54.690909-27.741091-69.678545-60.136727l-55.854546-110.638546S236.125091-11.310545 320.930909 1.303273c0 0 38.167273 1.768727 109.707636 34.210909 0-0.139636 46.545455 36.072727 83.502546 27.554909z m448 749.381818c31.976727 106.635636-63.581091 210.245818-194.373818 210.385455H247.156364c-126.696727 0-221.556364-98.164364-196.096-202.938182L128.465455 502.225455C157.696 381.858909 283.275636 295.563636 428.916364 295.563636h139.217454c140.381091 0 262.888727 80.384 297.425455 195.118546l96.581818 321.722182zM348.346182 487.749818L447.301818 667.461818H380.276364v31.744h84.805818l0.465454 0.512v44.032H380.369455v31.744h85.317818v77.824h58.88v-77.824h85.829818v-31.744h-85.829818v-44.032l0.512-0.465454h85.317818v-31.790546h-67.537455l99.002182-179.665454h-67.025454l-79.732364 157.137454-79.685818-157.184h-67.025455z" fill="#1C8BF2" p-id="4192"></path><path d="M512 266.426182H367.336727s-54.690909-27.741091-69.678545-60.136727l-55.854546-110.638546S236.125091-11.310545 320.930909 1.303273c0 0 38.167273 1.768727 109.707636 34.210909 0-0.139636 44.776727 34.676364 81.361455 28.020363v202.891637z m0 756.363636H247.156364c-126.696727 0-221.556364-98.117818-196.096-202.845091l77.405091-317.765818C157.696 381.858909 283.275636 295.563636 428.916364 295.563636H512v727.226182z" fill="#FFFFFF" fill-opacity=".2" p-id="4193"></path></svg>